<svg xmlns="http://www.w3.org/2000/svg" width="9.297" height="15.47" viewBox="0 0 18.594 30.94">
  <metadata><?xpacket begin="﻿" id="W5M0MpCehiHzreSzNTczkc9d"?>
<x:xmpmeta xmlns:x="adobe:ns:meta/" x:xmptk="Adobe XMP Core 5.6-c138 79.159824, 2016/09/14-01:09:01        ">
   <rdf:RDF xmlns:rdf="http://www.w3.org/1999/02/22-rdf-syntax-ns#">
      <rdf:Description rdf:about=""/>
   </rdf:RDF>
</x:xmpmeta>
                                                                                                    
                                                                                                    
                                                                                                    
                                                                                                    
                                                                                                    
                                                                                                    
                                                                                                    
                                                                                                    
                                                                                                    
                                                                                                    
                                                                                                    
                                                                                                    
                                                                                                    
                                                                                                    
                                                                                                    
                                                                                                    
                                                                                                    
                                                                                                    
                                                                                                    
                                                                                                    
                           
<?xpacket end="w"?></metadata>
<defs>
    <style>
      .cls-1 {
        fill: #222;
        fill-rule: evenodd;
      }
    </style>
  </defs>
  <path id="_-e-facebook" data-name="-e-facebook" class="cls-1" d="M862.407,8560.83h-4.466c-5.015,0-8.256,2.98-8.256,7.61v3.51H845.2a0.668,0.668,0,0,0-.7.63v5.09a0.675,0.675,0,0,0,.7.63h4.488v12.83a0.668,0.668,0,0,0,.7.63h5.856a0.668,0.668,0,0,0,.7-0.63V8578.3h5.247a0.675,0.675,0,0,0,.7-0.63v-5.09a0.57,0.57,0,0,0-.206-0.44,0.691,0.691,0,0,0-.5-0.19h-5.249v-2.98c0-1.43.379-2.15,2.451-2.15l3.008-.01a0.666,0.666,0,0,0,.7-0.62v-4.73A0.673,0.673,0,0,0,862.407,8560.83Z" transform="translate(-844.5 -8560.81)"/>
</svg>
