<svg xmlns="http://www.w3.org/2000/svg" width="249" height="300" viewBox="0 0 249 300">
  <line y1="110.14" x2="248.55" y2="110.14" style="fill: none;stroke: #999;stroke-miterlimit: 10;stroke-width: 0.5px"/>
  <g>
    <line x1="181.01" y1="30.47" x2="224.37" y2="23.46" style="fill: none;stroke: #062c5e;stroke-miterlimit: 10"/>
    <line x1="129.37" y1="52.79" x2="174.64" y2="33.03" style="fill: none;stroke: #062c5e;stroke-miterlimit: 10"/>
    <line x1="122.99" y1="54.81" x2="76.45" y2="62.35" style="fill: none;stroke: #062c5e;stroke-miterlimit: 10"/>
    <line x1="26.08" y1="73.83" x2="70.07" y2="64.27" style="fill: none;stroke: #062c5e;stroke-miterlimit: 10"/>
    <path d="M227.56,19.64a3.19,3.19,0,1,1-3.19,3.19,3.19,3.19,0,0,1,3.19-3.19" style="fill: #062c5e;fill-rule: evenodd"/>
    <circle cx="177.83" cy="31.75" r="3.19" style="fill: none;stroke: #062c5e;stroke-miterlimit: 10"/>
    <circle cx="126.18" cy="54.07" r="3.19" style="fill: none;stroke: #062c5e;stroke-miterlimit: 10"/>
    <circle cx="73.26" cy="62.99" r="3.19" style="fill: none;stroke: #062c5e;stroke-miterlimit: 10"/>
    <circle cx="22.89" cy="74.47" r="3.19" style="fill: none;stroke: #062c5e;stroke-miterlimit: 10"/>
    <text transform="translate(12.69 92.06) scale(1 1.03)" style="font-size: 12px;fill: #062c5e;font-family: 'Spoqa Han Sans'"><tspan style="letter-spacing: -0.024007161458333332em">58</tspan><tspan x="13.73" y="0">5</tspan></text>
    <text transform="translate(63.91 79.66) scale(1 1.03)" style="font-size: 12px;fill: #062c5e;font-family: 'Spoqa Han Sans'"><tspan style="letter-spacing: -0.024007161458333332em">65</tspan><tspan x="13.73" y="0">2</tspan></text>
    <text transform="translate(117.05 71.05) scale(1 1.03)" style="font-size: 12px;fill: #062c5e;font-family: 'Spoqa Han Sans'"><tspan style="letter-spacing: -0.024007161458333332em">70</tspan><tspan x="13.73" y="0">0</tspan></text>
    <text transform="translate(168.48 50.61) scale(1 1.03)" style="font-size: 12px;fill: #062c5e;font-family: 'Spoqa Han Sans'"><tspan style="letter-spacing: -0.024007161458333332em">81</tspan><tspan x="13.73" y="0">8</tspan></text>
    <text transform="translate(215.86 40.82) scale(1 1.03)" style="font-size: 14px;fill: #062c5e;font-family: 'Spoqa Han Sans';font-weight: 700"><tspan style="letter-spacing: -0.024972098214285716em">8</tspan><tspan x="7.99" y="0" style="letter-spacing: -0.023995535714285716em">9</tspan><tspan x="16" y="0">1</tspan></text>
    <text transform="translate(11.12 11)" style="font-size: 12.5px;fill: #062c5e;font-family: 'Spoqa Han Sans';font-weight: 700">수입량</text>
  </g>
  <g>
    <line x1="24.47" y1="187.39" x2="69.73" y2="184.84" style="fill: none;stroke: #062c5e;stroke-miterlimit: 10"/>
    <line x1="76.11" y1="184.2" x2="120.74" y2="178.46" style="fill: none;stroke: #062c5e;stroke-miterlimit: 10"/>
    <line x1="127.12" y1="177.82" x2="172.39" y2="179.1" style="fill: none;stroke: #062c5e;stroke-miterlimit: 10"/>
    <line x1="178.76" y1="179.1" x2="224.03" y2="175.27" style="fill: none;stroke: #062c5e;stroke-miterlimit: 10"/>
    <path d="M226.58,172.09a3.19,3.19,0,1,1-3.19,3.19,3.19,3.19,0,0,1,3.19-3.19" style="fill: #062c5e;fill-rule: evenodd"/>
    <circle cx="175.58" cy="179.1" r="3.19" style="fill: none;stroke: #062c5e;stroke-miterlimit: 10"/>
    <circle cx="123.93" cy="178.46" r="3.19" style="fill: none;stroke: #062c5e;stroke-miterlimit: 10"/>
    <circle cx="72.92" cy="184.84" r="3.19" style="fill: none;stroke: #062c5e;stroke-miterlimit: 10"/>
    <circle cx="21.28" cy="187.39" r="3.19" style="fill: none;stroke: #062c5e;stroke-miterlimit: 10"/>
    <text transform="translate(9.93 164.81) scale(1 1.03)" style="font-size: 11px;fill: #062c5e;font-family: 'Spoqa Han Sans';letter-spacing: -0.024014559659090908em">23만<tspan x="-1.36" y="13.58">180</tspan><tspan x="17.51" y="13.58" style="letter-spacing: -0.00004438920454545455em">0</tspan></text>
    <text transform="translate(61.78 162.31) scale(1 1.03)" style="font-size: 11px;fill: #062c5e;font-family: 'Spoqa Han Sans';letter-spacing: -0.024014559659090908em">30만<tspan x="-1.36" y="13.58">310</tspan><tspan x="17.51" y="13.58" style="letter-spacing: -0.00004438920454545455em">0</tspan></text>
    <text transform="translate(112.58 156.91) scale(1 1.03)" style="font-size: 11px;fill: #062c5e;font-family: 'Spoqa Han Sans';letter-spacing: -0.024014559659090908em">45만<tspan x="1.78" y="13.58">20</tspan><tspan x="14.37" y="13.58" style="letter-spacing: -0.00004438920454545455em">0</tspan></text>
    <text transform="translate(164.86 156.91) scale(1 1.03)" style="font-size: 11px;fill: #062c5e;font-family: 'Spoqa Han Sans';letter-spacing: -0.024014559659090908em">43만<tspan x="-1.36" y="13.58">170</tspan><tspan x="17.51" y="13.58" style="letter-spacing: -0.00004438920454545455em">0</tspan></text>
    <text transform="translate(212.14 148.65) scale(1 1.03)" style="font-size: 14px;fill: #062c5e;font-family: 'Spoqa Han Sans';font-weight: 700"><tspan style="letter-spacing: -0.023995535714285716em">46만</tspan><tspan x="-1.74" y="16.97" style="letter-spacing: -0.023995535714285716em">390</tspan><tspan x="22.29" y="16.97">0</tspan></text>
    <text transform="translate(9.52 212.93) scale(1 1.03)" style="font-size: 10px;fill: #062c5e;font-family: 'Spoqa Han Sans';font-weight: 700"><tspan style="letter-spacing: -0.0240234375em">20</tspan><tspan x="11.44" y="0" style="letter-spacing: -0.025em">1</tspan><tspan x="17.15" y="0">0</tspan></text>
    <text transform="translate(60.52 212.93) scale(1 1.03)" style="font-size: 10px;fill: #062c5e;font-family: 'Spoqa Han Sans';font-weight: 700"><tspan style="letter-spacing: -0.0240234375em">20</tspan><tspan x="11.44" y="0" style="letter-spacing: -0.025em">1</tspan><tspan x="17.15" y="0">1</tspan></text>
    <text transform="translate(112.38 212.93) scale(1 1.03)" style="font-size: 10px;fill: #062c5e;font-family: 'Spoqa Han Sans';font-weight: 700"><tspan style="letter-spacing: -0.0240234375em">201</tspan><tspan x="17.16" y="0">2</tspan></text>
    <text transform="translate(161.87 212.93) scale(1 1.03)" style="font-size: 10px;fill: #062c5e;font-family: 'Spoqa Han Sans';font-weight: 700"><tspan style="letter-spacing: -0.0240234375em">201</tspan><tspan x="17.16" y="0">3</tspan></text>
    <text transform="translate(213.13 212.93) scale(1 1.03)" style="font-size: 10px;fill: #062c5e;font-family: 'Spoqa Han Sans';font-weight: 700"><tspan style="letter-spacing: -0.0240234375em">201</tspan><tspan x="17.16" y="0">4</tspan></text>
    <text transform="translate(9.01 130.52)" style="font-size: 12.5px;fill: #062c5e;font-family: 'Spoqa Han Sans';font-weight: 700">생산량</text>
  </g>
  <text transform="translate(55.37 252.28)" style="font-size: 14px;fill: #444;font-family: 'Spoqa Han Sans'">녹차,홍차,기타 차류 총합</text>
  <text transform="translate(40.51 292.89)" style="font-size: 12px;fill: #777;font-family: 'Spoqa Han Sans'">자료: 한국농수산식품유통공사(aT)</text>
</svg>
