<svg xmlns="http://www.w3.org/2000/svg" width="245" height="262" viewBox="0 0 245 262">
  <polyline points="23.71 60.4 23.71 198.02 225.15 198.02 225.15 60.4" style="fill: none;stroke: #062c5e;stroke-miterlimit: 10"/>
  <rect x="37.09" y="113.93" width="14.22" height="84.08" style="fill: none;stroke: #062c5e;stroke-miterlimit: 10"/>
  <rect x="63.97" y="108.57" width="14.22" height="89.44" style="fill: none;stroke: #062c5e;stroke-miterlimit: 10"/>
  <rect x="90.85" y="102.29" width="14.22" height="95.72" style="fill: none;stroke: #062c5e;stroke-miterlimit: 10"/>
  <rect x="117.74" y="96.86" width="14.22" height="101.16" style="fill: none;stroke: #062c5e;stroke-miterlimit: 10"/>
  <rect x="143.57" y="91.56" width="14.22" height="106.46" style="fill: none;stroke: #062c5e;stroke-miterlimit: 10"/>
  <rect x="170.24" y="86.27" width="14.22" height="111.75" style="fill: none;stroke: #062c5e;stroke-miterlimit: 10"/>
  <rect x="197.09" y="79.63" width="14.22" height="118.38" style="fill: none;stroke: #062c5e;stroke-miterlimit: 10"/>
  <text transform="translate(0.58 69.9)" style="font-size: 10px;fill: #062c5e;font-family: 'Spoqa Han Sans'">500</text>
  <text transform="translate(0.58 95)" style="font-size: 10px;fill: #062c5e;font-family: 'Spoqa Han Sans'">400</text>
  <text transform="translate(3.56 120.1)" style="font-size: 10px;fill: #062c5e;font-family: 'Spoqa Han Sans'">30</text>
  <text transform="translate(0.58 145.2)" style="font-size: 10px;fill: #062c5e;font-family: 'Spoqa Han Sans'">200</text>
  <text transform="translate(0.58 170.3)" style="font-size: 10px;fill: #062c5e;font-family: 'Spoqa Han Sans'">100</text>
  <text transform="translate(6.54 198.4)" style="font-size: 10px;fill: #062c5e;font-family: 'Spoqa Han Sans'">0</text>
  <g>
    <text transform="translate(232.68 69.9)" style="font-size: 10px;fill: #062c5e;font-family: 'Spoqa Han Sans'">80</text>
    <text transform="translate(232.68 102.53)" style="font-size: 10px;fill: #062c5e;font-family: 'Spoqa Han Sans'">60</text>
    <text transform="translate(232.68 135.16)" style="font-size: 10px;fill: #062c5e;font-family: 'Spoqa Han Sans'">40</text>
    <text transform="translate(232.68 167.79)" style="font-size: 10px;fill: #062c5e;font-family: 'Spoqa Han Sans'">20</text>
  </g>
  <text transform="translate(232.68 197.92)" style="font-size: 10px;fill: #062c5e;font-family: 'Spoqa Han Sans'">0</text>
  <g>
    <path d="M46.3,165.91a1.78,1.78,0,1,1-1.78-1.78,1.78,1.78,0,0,1,1.78,1.78" style="fill: #062c5e"/>
    <path d="M74.64,85.38a1.78,1.78,0,1,1-1.78-1.78,1.78,1.78,0,0,1,1.78,1.78" style="fill: #062c5e"/>
    <path d="M99.74,70.29A1.78,1.78,0,1,1,98,68.51a1.78,1.78,0,0,1,1.78,1.78" style="fill: #062c5e"/>
    <path d="M126,110.35a1.78,1.78,0,1,1-1.78-1.78,1.78,1.78,0,0,1,1.78,1.78" style="fill: #062c5e"/>
    <path d="M151.94,104.5a1.78,1.78,0,1,1-1.78-1.78,1.78,1.78,0,0,1,1.78,1.78" style="fill: #062c5e"/>
    <path d="M178.94,113.93a1.78,1.78,0,1,1-1.78-1.78,1.78,1.78,0,0,1,1.78,1.78" style="fill: #062c5e"/>
    <path d="M206,109.52a1.78,1.78,0,1,1-1.78-1.78,1.78,1.78,0,0,1,1.78,1.78" style="fill: #062c5e"/>
    <text transform="translate(5.72 52.9)" style="font-size: 9px;fill: #062c5e;font-family: 'Spoqa Han Sans'">(M USD)</text>
    <text transform="translate(220.27 53.16)" style="font-size: 9px;fill: #062c5e;font-family: 'Spoqa Han Sans'">(%)</text>
    <text transform="translate(32.97 212.6) scale(0.95 1)" style="font-size: 9px;fill: #062c5e;font-family: 'Spoqa Han Sans'">2010</text>
    <text transform="translate(60.61 212.6) scale(0.95 1)" style="font-size: 9px;fill: #062c5e;font-family: 'Spoqa Han Sans'">2011</text>
    <text transform="translate(88.25 212.6) scale(0.95 1)" style="font-size: 9px;fill: #062c5e;font-family: 'Spoqa Han Sans'">2012</text>
    <text transform="translate(114.63 212.6) scale(0.95 1)" style="font-size: 9px;fill: #062c5e;font-family: 'Spoqa Han Sans'">2013</text>
    <text transform="translate(140.6 212.6) scale(0.95 1)" style="font-size: 9px;fill: #062c5e;font-family: 'Spoqa Han Sans'">2014</text>
    <text transform="translate(166.98 212.6) scale(0.95 1)" style="font-size: 9px;fill: #062c5e;font-family: 'Spoqa Han Sans'">2015</text>
    <text transform="translate(193.78 212.6) scale(0.95 1)" style="font-size: 9px;fill: #062c5e;font-family: 'Spoqa Han Sans'">2016</text>
    <line x1="45.48" y1="164.42" x2="72.66" y2="85.01" style="fill: none;stroke: #062c5e;stroke-miterlimit: 10"/>
    <line x1="97.5" y1="70.14" x2="124.43" y2="110.72" style="fill: none;stroke: #062c5e;stroke-miterlimit: 10"/>
    <line x1="124.43" y1="110.72" x2="150.68" y2="104.59" style="fill: none;stroke: #062c5e;stroke-miterlimit: 10"/>
    <line x1="150.68" y1="104.59" x2="177.06" y2="113.94" style="fill: none;stroke: #062c5e;stroke-miterlimit: 10"/>
    <line x1="177.06" y1="113.94" x2="204.2" y2="109.3" style="fill: none;stroke: #062c5e;stroke-miterlimit: 10"/>
    <line x1="72.66" y1="85.01" x2="97.5" y2="70.14" style="fill: none;stroke: #062c5e;stroke-miterlimit: 10"/>
  </g>
  <text transform="translate(30.79 9) scale(0.97 1)" style="font-size: 10px;fill: #444;font-family: 'Spoqa Han Sans';letter-spacing: -0.04701594866724932em">향수</text>
  <text transform="translate(29.7 26.24) scale(0.97 1)" style="font-size: 10px;fill: #444;font-family: 'Spoqa Han Sans';letter-spacing: -0.024967784302950387em">성장률</text>
  <rect x="3.33" y="3.2" width="21.85" height="5.8" style="fill: none;stroke: #062c5e;stroke-miterlimit: 10"/>
  <circle cx="13.87" cy="23.37" r="2.47" style="fill: #062c5e"/>
  <line x1="3.04" y1="23.37" x2="24.7" y2="23.37" style="fill: none;stroke: #062c5e;stroke-miterlimit: 10"/>
  <text transform="translate(0.4 255.76) scale(0.97 1)" style="font-size: 11px;fill: #999;font-family: 'Spoqa Han Sans';letter-spacing: -0.02498608913015196em"><tspan xml:space="preserve">자료:  Euromonitor</tspan><tspan x="88.89" y="0">, 케이프투자증권</tspan></text>
</svg>
