<svg xmlns="http://www.w3.org/2000/svg" xmlns:xlink="http://www.w3.org/1999/xlink" width="248" height="339" viewBox="0 0 248 339">
  <defs>
    <clipPath id="hearing-a">
      <path d="M81.5,247a44.73,44.73,0,1,0,87.93-11.59c-1.29,0-2.76.14-4.35.26a40.47,40.47,0,1,1-38.85-29.15c1.08,0,2.15.06,3.22.14l-.21-4.29c-1-.07-2-.11-3-.11A44.78,44.78,0,0,0,81.5,247Z" style="fill: none"/>
    </clipPath>
    <clipPath id="hearing-b">
      <path d="M82.22,84.86A44.73,44.73,0,1,0,154.3,49.5l-2.7,3.3A40.44,40.44,0,1,1,127,44.38c1.08,0,2.15.06,3.22.14L130,40.24c-1-.07-2-.11-3-.11A44.78,44.78,0,0,0,82.22,84.86Z" style="fill: none"/>
    </clipPath>
  </defs>
  <g>
    <g>
      <path d="M164.83,235.71c1.6-.13,3.07-.22,4.35-.26a44.82,44.82,0,0,0-40.19-33l.21,4.29A40.55,40.55,0,0,1,164.83,235.71Z" style="fill: none;stroke: #062c5e;stroke-miterlimit: 10"/>
      <path d="M81.25,247a44.73,44.73,0,1,0,87.93-11.59c-1.29,0-2.76.14-4.35.26A40.47,40.47,0,1,1,126,206.57c1.08,0,2.15.06,3.22.14l-.21-4.29c-1-.07-2-.11-3-.11A44.78,44.78,0,0,0,81.25,247Z" style="fill: none;stroke: #062c5e;stroke-miterlimit: 10"/>
    </g>
    <g style="clip-path: url(#hearing-a)">
      <g>
        <line x1="96.76" y1="195.68" x2="182.06" y2="222.98" style="fill: none;stroke: #062c5e;stroke-miterlimit: 10"/>
        <line x1="96.76" y1="199.4" x2="182.06" y2="226.7" style="fill: none;stroke: #062c5e;stroke-miterlimit: 10"/>
        <line x1="96.76" y1="203.3" x2="182.06" y2="230.6" style="fill: none;stroke: #062c5e;stroke-miterlimit: 10"/>
        <line x1="96.76" y1="207.02" x2="182.06" y2="234.32" style="fill: none;stroke: #062c5e;stroke-miterlimit: 10"/>
        <line x1="89.34" y1="208.78" x2="174.64" y2="236.07" style="fill: none;stroke: #062c5e;stroke-miterlimit: 10"/>
        <line x1="89.34" y1="212.5" x2="174.64" y2="239.79" style="fill: none;stroke: #062c5e;stroke-miterlimit: 10"/>
        <line x1="89.34" y1="216.4" x2="174.64" y2="243.69" style="fill: none;stroke: #062c5e;stroke-miterlimit: 10"/>
        <line x1="89.34" y1="220.12" x2="174.64" y2="247.41" style="fill: none;stroke: #062c5e;stroke-miterlimit: 10"/>
        <line x1="86.19" y1="223.05" x2="171.49" y2="250.35" style="fill: none;stroke: #062c5e;stroke-miterlimit: 10"/>
        <line x1="83.17" y1="226.21" x2="172.21" y2="254.07" style="fill: none;stroke: #062c5e;stroke-miterlimit: 10"/>
        <line x1="82.29" y1="229.6" x2="170.96" y2="257.98" style="fill: none;stroke: #062c5e;stroke-miterlimit: 10"/>
        <line x1="81.15" y1="232.96" x2="168.97" y2="261.06" style="fill: none;stroke: #062c5e;stroke-miterlimit: 10"/>
        <line x1="79.85" y1="236.7" x2="168.97" y2="265.22" style="fill: none;stroke: #062c5e;stroke-miterlimit: 10"/>
        <line x1="79.77" y1="240.58" x2="166.89" y2="268.45" style="fill: none;stroke: #062c5e;stroke-miterlimit: 10"/>
        <line x1="79.85" y1="244.32" x2="166.89" y2="272.17" style="fill: none;stroke: #062c5e;stroke-miterlimit: 10"/>
        <line x1="78.44" y1="247.82" x2="163.74" y2="275.11" style="fill: none;stroke: #062c5e;stroke-miterlimit: 10"/>
        <line x1="75.42" y1="250.97" x2="164.46" y2="278.84" style="fill: none;stroke: #062c5e;stroke-miterlimit: 10"/>
        <line x1="74.54" y1="254.36" x2="163.21" y2="282.74" style="fill: none;stroke: #062c5e;stroke-miterlimit: 10"/>
        <line x1="73.4" y1="257.72" x2="161.22" y2="285.82" style="fill: none;stroke: #062c5e;stroke-miterlimit: 10"/>
        <line x1="62.35" y1="258" x2="149.47" y2="285.87" style="fill: none;stroke: #062c5e;stroke-miterlimit: 10"/>
        <line x1="62.43" y1="261.74" x2="149.47" y2="289.59" style="fill: none;stroke: #062c5e;stroke-miterlimit: 10"/>
        <line x1="61.02" y1="265.24" x2="146.32" y2="292.53" style="fill: none;stroke: #062c5e;stroke-miterlimit: 10"/>
        <line x1="58" y1="268.39" x2="147.04" y2="296.26" style="fill: none;stroke: #062c5e;stroke-miterlimit: 10"/>
        <line x1="57.12" y1="271.79" x2="145.78" y2="300.16" style="fill: none;stroke: #062c5e;stroke-miterlimit: 10"/>
        <line x1="55.98" y1="275.14" x2="143.8" y2="303.24" style="fill: none;stroke: #062c5e;stroke-miterlimit: 10"/>
      </g>
    </g>
    <text transform="translate(99.41 251.66)" style="font-size: 22.908559799194336px;fill: #062c5e;font-family: 'Spoqa Han Sans';font-weight: 700">77.8<tspan x="48.41" y="0" style="font-size: 12.409845352172852px">%</tspan></text>
    <text transform="translate(111.07 267.88)" style="font-size: 10.948104858398438px;fill: #444;font-family: 'Spoqa Han Sans'">아니다</text>
    <text transform="translate(187.16 208.21)" style="font-size: 11.137109756469727px;fill: #062c5e;font-family: 'Spoqa Han Sans';font-weight: 700">22.2%</text>
  </g>
  <g>
    <g>
      <path d="M151.6,52.79l2.7-3.3A44.48,44.48,0,0,0,130,40.24l.21,4.29A40.25,40.25,0,0,1,151.6,52.79Z" style="fill: none;stroke: #062c5e;stroke-miterlimit: 10"/>
      <path d="M82.22,84.86A44.73,44.73,0,1,0,154.3,49.5l-2.7,3.3A40.44,40.44,0,1,1,127,44.38c1.08,0,2.15.06,3.22.14L130,40.24c-1-.07-2-.11-3-.11A44.78,44.78,0,0,0,82.22,84.86Z" style="fill: none;stroke: #062c5e;stroke-miterlimit: 10"/>
    </g>
    <g style="clip-path: url(#hearing-b)">
      <g>
        <line x1="98.02" y1="33.97" x2="183.32" y2="61.26" style="fill: none;stroke: #062c5e;stroke-miterlimit: 10"/>
        <line x1="98.02" y1="37.69" x2="183.32" y2="64.98" style="fill: none;stroke: #062c5e;stroke-miterlimit: 10"/>
        <line x1="98.02" y1="41.59" x2="183.32" y2="68.88" style="fill: none;stroke: #062c5e;stroke-miterlimit: 10"/>
        <line x1="98.02" y1="45.31" x2="183.32" y2="72.6" style="fill: none;stroke: #062c5e;stroke-miterlimit: 10"/>
        <line x1="90.6" y1="47.06" x2="175.9" y2="74.35" style="fill: none;stroke: #062c5e;stroke-miterlimit: 10"/>
        <line x1="90.6" y1="50.78" x2="175.9" y2="78.07" style="fill: none;stroke: #062c5e;stroke-miterlimit: 10"/>
        <line x1="90.6" y1="54.68" x2="175.9" y2="81.97" style="fill: none;stroke: #062c5e;stroke-miterlimit: 10"/>
        <line x1="90.6" y1="58.4" x2="175.9" y2="85.69" style="fill: none;stroke: #062c5e;stroke-miterlimit: 10"/>
        <line x1="87.45" y1="61.33" x2="172.75" y2="88.63" style="fill: none;stroke: #062c5e;stroke-miterlimit: 10"/>
        <line x1="84.43" y1="64.49" x2="173.48" y2="92.36" style="fill: none;stroke: #062c5e;stroke-miterlimit: 10"/>
        <line x1="83.55" y1="67.88" x2="172.22" y2="96.26" style="fill: none;stroke: #062c5e;stroke-miterlimit: 10"/>
        <line x1="82.41" y1="71.24" x2="170.23" y2="99.34" style="fill: none;stroke: #062c5e;stroke-miterlimit: 10"/>
        <line x1="81.11" y1="74.98" x2="170.23" y2="103.5" style="fill: none;stroke: #062c5e;stroke-miterlimit: 10"/>
        <line x1="81.03" y1="78.86" x2="168.15" y2="106.74" style="fill: none;stroke: #062c5e;stroke-miterlimit: 10"/>
        <line x1="81.11" y1="82.6" x2="168.15" y2="110.46" style="fill: none;stroke: #062c5e;stroke-miterlimit: 10"/>
        <line x1="79.7" y1="86.1" x2="165" y2="113.39" style="fill: none;stroke: #062c5e;stroke-miterlimit: 10"/>
        <line x1="76.68" y1="89.25" x2="165.72" y2="117.12" style="fill: none;stroke: #062c5e;stroke-miterlimit: 10"/>
        <line x1="75.8" y1="92.65" x2="164.47" y2="121.02" style="fill: none;stroke: #062c5e;stroke-miterlimit: 10"/>
        <line x1="74.66" y1="96" x2="162.48" y2="124.1" style="fill: none;stroke: #062c5e;stroke-miterlimit: 10"/>
        <line x1="63.61" y1="96.28" x2="150.73" y2="124.16" style="fill: none;stroke: #062c5e;stroke-miterlimit: 10"/>
        <line x1="63.69" y1="100.02" x2="150.73" y2="127.88" style="fill: none;stroke: #062c5e;stroke-miterlimit: 10"/>
        <line x1="62.28" y1="103.52" x2="147.58" y2="130.81" style="fill: none;stroke: #062c5e;stroke-miterlimit: 10"/>
        <line x1="59.26" y1="106.68" x2="148.3" y2="134.54" style="fill: none;stroke: #062c5e;stroke-miterlimit: 10"/>
        <line x1="58.38" y1="110.07" x2="147.05" y2="138.44" style="fill: none;stroke: #062c5e;stroke-miterlimit: 10"/>
        <line x1="57.24" y1="113.42" x2="145.06" y2="141.52" style="fill: none;stroke: #062c5e;stroke-miterlimit: 10"/>
      </g>
    </g>
    <text transform="translate(101.63 89.77)" style="font-size: 22.563655853271484px;fill: #062c5e;font-family: 'Spoqa Han Sans';font-weight: 700">93.3<tspan x="47.68" y="0" style="font-size: 12.222999572753906px">%</tspan></text>
    <text transform="translate(170.01 41.04)" style="font-size: 10.941715240478516px;fill: #062c5e;font-family: 'Spoqa Han Sans';font-weight: 700">6.7%</text>
    <text transform="translate(117.84 106.08)" style="font-size: 10.632155418395996px;fill: #444;font-family: 'Spoqa Han Sans'">있다</text>
    <text transform="translate(147.93 41.04)" style="font-size: 10.941715240478516px;fill: #777;font-family: 'Spoqa Han Sans'">없다</text>
    <text transform="translate(154.4 208.21)" style="font-size: 10.941715240478516px;fill: #777;font-family: 'Spoqa Han Sans'">그렇다</text>
  </g>
  <text transform="translate(0 14.08) scale(0.97 1)" style="font-size: 16px;fill: #222;font-family: 'Spoqa Han Sans';letter-spacing: -0.02501183029340418em">1. 근무 중 언어폭력을 경험한 적이 있나?</text>
  <text transform="translate(0 167.01) scale(0.97 1)" style="font-size: 16px;fill: #222;font-family: 'Spoqa Han Sans';letter-spacing: -0.02501183029340418em">2. 전화상담원으로서의 나는 존중 <tspan x="0" y="22.5" xml:space="preserve">     받으며 일하고 있다.</tspan></text>
  <path d="M2.5,142.57H247.4" style="fill: none;stroke: #999;stroke-miterlimit: 10;stroke-width: 0.5px;fill-rule: evenodd"/>
  <text transform="translate(0 317.75)" style="font-size: 10px;fill: #999;font-family: 'Spoqa Han Sans'">*자료: 잡코리아X알바몬/ 콜센터 근무자 <tspan x="0" y="15">1128명 대상 설문 결과</tspan></text>
</svg>
