<svg xmlns="http://www.w3.org/2000/svg" width="35" height="35" viewBox="0 0 35 35">
  <g>
    <line x1="16.87" y1="6.26" x2="16.87" y2="33.65" style="fill: none;stroke: #999;stroke-linecap: round;stroke-linejoin: round"/>
    <path d="M16.87.5a8.42,8.42,0,0,0,1,2.52,6.29,6.29,0,0,0,4.75,3.11c-.43,1-2.45,6-1.63,7.39a.78.78,0,0,0,.63.4h.25c1.9,0,4.11-2,4.56-2.37a4.78,4.78,0,0,0,2.16.45,9.25,9.25,0,0,0,4.64-1.44c-.58,1.25-2.08,4.82-1.61,7.3l-.11,0c-2.44,1.09-3.77,2-4.07,2.89a1.05,1.05,0,0,0-.07.4.7.7,0,0,0,.29.55l3.61,2.58c-.69,0-1.95-.13-3.24-.14H27.5a9.46,9.46,0,0,0-3.85.48.7.7,0,0,0-.35.71,45.61,45.61,0,0,0,2.24,6,13.59,13.59,0,0,0-5.08-1.14,8.2,8.2,0,0,0-1.15.08l-.06-.08-.28-.4-.82-1.23L18,28.38a.7.7,0,0,0-.59-.32H16.31a.7.7,0,0,0-.59.32l-.13.19,0,0-.82,1.23-.27.4-.06.08a8.34,8.34,0,0,0-1.15-.08A13.65,13.65,0,0,0,8.2,31.39a45.58,45.58,0,0,0,2.24-6,.7.7,0,0,0-.35-.71,9.44,9.44,0,0,0-3.85-.48H5.7c-1.3,0-2.56.1-3.24.14l3.61-2.58a.7.7,0,0,0,.29-.54,1,1,0,0,0-.07-.4C6,20,4.65,19,2.22,17.91l-.11,0c.47-2.49-1-6-1.61-7.3A9.25,9.25,0,0,0,5.14,12a4.8,4.8,0,0,0,2.16-.44c.45.41,2.66,2.37,4.56,2.37h.25a.78.78,0,0,0,.63-.4c.83-1.4-1.19-6.36-1.62-7.39A6.29,6.29,0,0,0,15.86,3a8.41,8.41,0,0,0,1-2.52m16.8,9.81h0m-7.14,1.18h0" style="fill: none;stroke: #999;stroke-linecap: round;stroke-linejoin: round"/>
    <polyline points="14.09 8.22 16.89 10.73 19.66 8.22" style="fill: none;stroke: #999;stroke-linecap: round;stroke-linejoin: round"/>
    <polyline points="28.06 16.03 16.89 24.63 5.68 16.03" style="fill: none;stroke: #999;stroke-linecap: round;stroke-linejoin: round"/>
  </g>
</svg>
