<svg xmlns="http://www.w3.org/2000/svg" width="29" height="39" viewBox="0 0 29 39">
  <g>
    <path d="M18.41,17.22h8.06v2H18.41ZM28,36.72a1.64,1.64,0,0,1-1.64,1.64H18.51a1.64,1.64,0,0,1-1.64-1.64V19.25H28Zm0,0" style="fill: none;stroke: #999;stroke-linecap: round;stroke-linejoin: round"/>
    <path d="M4.71,4.93C6,2.82,6.9.86,7.51.56c.54.12.9,1.81.9,2.93v8.05H4.71ZM3.45,11.55H9.66V23.07H3.45Zm8.67,25.18a1.64,1.64,0,0,1-1.64,1.64H2.62A1.64,1.64,0,0,1,1,36.72V23.07H12.13Zm0,2.22" style="fill: none;stroke: #999;stroke-linecap: round;stroke-linejoin: round"/>
  </g>
</svg>
