<svg xmlns="http://www.w3.org/2000/svg" width="38" height="41" viewBox="0 0 38 41">
  <path d="M.5,21.31a.13.13,0,0,1,.13-.13c32.38,0,30.82-.06,30.82.13,0,6.43-3.27,12.82-8.91,15.82H9.41C4,34.26.5,28.06.5,21.31Z" style="fill: none;stroke: #999;stroke-linecap: round;stroke-linejoin: round"/>
  <path d="M16.08,40C8.41,40,3.49,38.32,1,37.14H31.11c-2.57,1.19-7.52,2.88-15,2.88Z" style="fill: none;stroke: #999;stroke-linecap: round;stroke-linejoin: round"/>
  <path d="M31.11,25h5.71s.39,6.18-8.3,6.57A15.79,15.79,0,0,0,31.11,25Z" style="fill: none;stroke: #999;stroke-linecap: round;stroke-linejoin: round"/>
  <g>
    <path d="M18.18,4.58S18.88.15,25,.52C25,.52,23.79,6.19,18.18,4.58Z" style="fill: none;stroke: #999;stroke-linecap: round;stroke-linejoin: round"/>
    <path d="M18.17,4.54a4.71,4.71,0,0,1,1-2.09,8,8,0,1,0,5.13,7.48A7.7,7.7,0,0,0,22.12,4.5,5.46,5.46,0,0,1,18.17,4.54Z" style="fill: none;stroke: #999;stroke-linecap: round;stroke-linejoin: round"/>
    <path d="M17.27,5.35s4-3.57,5.82-3.46" style="fill: none;stroke: #999;stroke-linecap: round;stroke-linejoin: round"/>
    <circle class="fill" cx="15.09" cy="4.1" r="0.48" style="fill: #999"/>
    <circle class="fill" cx="20.93" cy="6.79" r="0.48" style="fill: #999"/>
    <circle class="fill" cx="22.71" cy="8.57" r="0.48" style="fill: #999"/>
    <circle class="fill" cx="22.71" cy="10.64" r="0.48" style="fill: #999"/>
    <circle class="fill" cx="20.58" cy="9.93" r="0.48" style="fill: #999"/>
    <circle class="fill" cx="20.58" cy="12.26" r="0.48" style="fill: #999"/>
    <circle class="fill" cx="12.55" cy="5.23" r="0.48" style="fill: #999"/>
  </g>
</svg>
