<svg xmlns="http://www.w3.org/2000/svg" width="35" height="31" viewBox="0 0 35 31">
  <g>
    <path d="M5.09,4.4a9.44,9.44,0,0,1,8.62,7.51l.91,4.22" style="fill: none;stroke: #999;stroke-linecap: round;stroke-linejoin: round"/>
    <path d="M.81,8.46s-2.31,7.83,5.71,10c0,0,2,6.76,10.9,10.82,1.13.51,1.85,1.16,3.21,1.16,0,0,4.29-.63,7.26-11l1.36-5.64" style="fill: none;stroke: #999;stroke-linecap: round;stroke-linejoin: round"/>
    <path d="M24.92,14s-3.77,2.65-5,5.3" style="fill: none;stroke: #999;stroke-linecap: round;stroke-linejoin: round"/>
    <path d="M18.51,22.78s3.4-4.62-.21-8.75a5.37,5.37,0,0,0-4.49-1.66" style="fill: none;stroke: #999;stroke-linecap: round;stroke-linejoin: round"/>
    <circle cx="26.85" cy="7.38" r="6.88" style="fill: none;stroke: #999;stroke-linecap: round;stroke-linejoin: round"/>
    <circle cx="26.77" cy="7.39" r="4.98" style="fill: none;stroke: #999;stroke-linecap: round;stroke-linejoin: round"/>
    <circle cx="26.77" cy="7.46" r="1.87" style="fill: none;stroke: #999;stroke-linecap: round;stroke-linejoin: round"/>
    <circle cx="26.82" cy="7.51" r="0.51" style="fill: none;stroke: #999;stroke-linecap: round;stroke-linejoin: round"/>
  </g>
</svg>
