<svg xmlns="http://www.w3.org/2000/svg" width="89" height="94" viewBox="0 0 89 94">
  <rect x="34.16" y="0.5" width="20" height="20" style="fill: none;stroke: #999;stroke-miterlimit: 10"/>
  <text transform="translate(39.98 15.29)" style="font-size: 14px;fill: #999;font-family: 'Spoqa Han Sans';font-weight: 700">2</text>
  <text transform="translate(10.73 51.71)" style="font-size: 7.5px;fill: #999;font-family: 'Spoqa Han Sans';font-weight: 700"> </text>
  <g>
    <path d="M11.6,80.41S10.74,79,9.51,79.24C9.51,79.24,9.2,79.78,11.6,80.41Z" style="fill: none;stroke: #999;stroke-miterlimit: 10"/>
    <path d="M29.26,93.08l-4.08-7.76c-.64-.28-8.49-2.84-9.43-2.91-.7-.06-2-1-3.32-1.64s-2.67-.92-2.76-1.39c-.25-1.28,1.73-1.28,2-1.27a12,12,0,0,1,3.56,1C14.66,78.63,14,78,14,78l-.38-.35-.05,0-7-6.11a1.29,1.29,0,0,1-.43-.76,2.25,2.25,0,0,0,.25.26l.33.31c.45.36.81.18,1.1-.18A.7.7,0,0,0,7.77,70l-.37-.33-.25-.15a1.29,1.29,0,0,1,.85.32l6.55,5.35.15-.18L7.27,68.13a1.26,1.26,0,0,1-.42-.81,2.17,2.17,0,0,0,.31.34l.33.31c.45.36.81.18,1.1-.18a.7.7,0,0,0-.05-1.11l-.37-.33a2.3,2.3,0,0,0-.38-.21,1.25,1.25,0,0,1,1,.31l7.75,6.61.15-.12L10.52,67.2a1.39,1.39,0,0,1-.46-1.08,2.12,2.12,0,0,0,.3.4l.31.33c.42.39.8.23,1.11-.11a.7.7,0,0,0,0-1.11l-.35-.36a2.37,2.37,0,0,0-.33-.21,1.41,1.41,0,0,1,1,.38l6.61,5.84.12-.09-3.3-3.41a1.24,1.24,0,0,1-.41-.9,1.78,1.78,0,0,0,.22.29l.25.28c.34.33.65.21.91-.06a.58.58,0,0,0,0-.91l-.28-.3A2,2,0,0,0,16,66a1.26,1.26,0,0,1,.86.35L20.52,70l.08.07h0a53.48,53.48,0,0,1,4.75,4.2C26.95,76,29.9,80.8,31,82.63l4.88,9.91" style="fill: none;stroke: #999;stroke-miterlimit: 10"/>
    <path d="M16,66a.63.63,0,0,0-.89.88" style="fill: none;stroke: #999;stroke-miterlimit: 10"/>
    <path d="M15.16,66.88a1.77,1.77,0,0,0,.22.29l.25.28a.58.58,0,0,0,.91-.06c.26-.27.38-.58,0-.91l-.28-.3L16,66" style="fill: none;stroke: #999;stroke-miterlimit: 10"/>
    <path d="M11.12,65.06a.81.81,0,0,0-1,.07.8.8,0,0,0,0,1" style="fill: none;stroke: #999;stroke-miterlimit: 10"/>
    <path d="M10.05,66.13a2.12,2.12,0,0,0,.3.4l.31.33c.42.39.8.23,1.11-.11a.7.7,0,0,0,0-1.11l-.35-.36a2.35,2.35,0,0,0-.33-.21" style="fill: none;stroke: #999;stroke-miterlimit: 10"/>
    <path d="M7.78,66.13a.79.79,0,0,0-1,.15.81.81,0,0,0,.07,1" style="fill: none;stroke: #999;stroke-miterlimit: 10"/>
    <path d="M6.85,67.31a2.17,2.17,0,0,0,.31.34l.33.31c.45.36.81.18,1.1-.18S9,67,8.53,66.67l-.37-.33a2.32,2.32,0,0,0-.38-.21" style="fill: none;stroke: #999;stroke-miterlimit: 10"/>
    <path d="M7.15,69.5c-.4-.21-.84-.27-1.14.09a.85.85,0,0,0,.13,1.11" style="fill: none;stroke: #999;stroke-miterlimit: 10"/>
    <path d="M6.15,70.7a2.3,2.3,0,0,0,.25.26l.33.31c.45.36.81.18,1.1-.18A.7.7,0,0,0,7.77,70l-.37-.33-.25-.15" style="fill: none;stroke: #999;stroke-miterlimit: 10"/>
    <path d="M77.66,78.95c2.31-.89,1.95-1.39,1.95-1.39C78.36,77.41,77.66,78.95,77.66,78.95Z" style="fill: none;stroke: #999;stroke-miterlimit: 10"/>
    <path d="M61.92,92.53l3.63-7.41c.6-.35,7.28-3.55,8.21-3.73.69-.14,1.85-1.16,3.12-2s2.55-1.21,2.59-1.68c.11-1.3-1.86-1.08-2.09-1A12,12,0,0,0,73.95,78c.48-.53,1-1.19,1.08-1.26l.34-.39,0,0,6.26-6.84a1.29,1.29,0,0,0,.35-.8,2.26,2.26,0,0,1-.22.29l-.3.34a.84.84,0,0,1-1.18-1.17l.34-.37.23-.17a1.29,1.29,0,0,0-.81.41l-5.93,6L74,73.91l6.65-7.64a1.26,1.26,0,0,0,.33-.85,2.15,2.15,0,0,1-.27.37l-.3.34A.84.84,0,0,1,79.21,65l.34-.37a2.38,2.38,0,0,1,.35-.25,1.25,1.25,0,0,0-.95.42l-7,7.42-.16-.1,5.49-6.37a1.39,1.39,0,0,0,.34-1.12,2.14,2.14,0,0,1-.26.43l-.27.36a.84.84,0,0,1-1.26-1.09l.31-.39a2.35,2.35,0,0,1,.3-.25,1.41,1.41,0,0,0-1,.48l-5.94,6.52-.13-.08,2.91-3.75a1.25,1.25,0,0,0,.31-.93,1.72,1.72,0,0,1-.18.31l-.22.3a.58.58,0,0,1-.91,0c-.29-.24-.44-.54-.14-.9l.24-.33a1.94,1.94,0,0,1,.23-.2,1.26,1.26,0,0,0-.81.45l-3.2,4-.07.08h0a53.57,53.57,0,0,0-4.26,4.69c-1.4,1.88-3.81,7-4.73,8.95l-3.74,9.26" style="fill: none;stroke: #999;stroke-miterlimit: 10"/>
    <path d="M71.67,65.11a.63.63,0,0,1,1,.78" style="fill: none;stroke: #999;stroke-miterlimit: 10"/>
    <path d="M72.65,65.89a1.75,1.75,0,0,1-.18.31l-.21.3a.58.58,0,0,1-.91,0c-.29-.24-.44-.54-.14-.9l.24-.33a2,2,0,0,1,.23-.2" style="fill: none;stroke: #999;stroke-miterlimit: 10"/>
    <path d="M76.46,63.64a.8.8,0,0,1,1,0,.79.79,0,0,1,.13,1" style="fill: none;stroke: #999;stroke-miterlimit: 10"/>
    <path d="M77.64,64.58a2.14,2.14,0,0,1-.26.43l-.27.36a.84.84,0,0,1-1.25-1.09l.31-.39a2.39,2.39,0,0,1,.3-.25" style="fill: none;stroke: #999;stroke-miterlimit: 10"/>
    <path d="M79.9,64.34a.79.79,0,0,1,1,0,.81.81,0,0,1,0,1" style="fill: none;stroke: #999;stroke-miterlimit: 10"/>
    <path d="M81,65.41a2.15,2.15,0,0,1-.27.37l-.3.34A.84.84,0,0,1,79.21,65l.34-.37a2.35,2.35,0,0,1,.35-.25" style="fill: none;stroke: #999;stroke-miterlimit: 10"/>
    <path d="M80.89,67.62c.38-.25.8-.36,1.14,0a.85.85,0,0,1,0,1.12" style="fill: none;stroke: #999;stroke-miterlimit: 10"/>
    <path d="M82,68.71a2.26,2.26,0,0,1-.22.29l-.3.34a.84.84,0,0,1-1.18-1.17l.34-.37.23-.17" style="fill: none;stroke: #999;stroke-miterlimit: 10"/>
    <path d="M32.93,60.06a6.4,6.4,0,0,0,3.83,1,6.4,6.4,0,0,0,3.83-1" style="fill: none;stroke: #999;stroke-miterlimit: 10"/>
    <path d="M46.21,60.06a6.4,6.4,0,0,0,3.83,1,6.4,6.4,0,0,0,3.83-1" style="fill: none;stroke: #999;stroke-miterlimit: 10"/>
    <line x1="40.58" y1="72.64" x2="46.77" y2="72.64" style="fill: none;stroke: #999;stroke-miterlimit: 10"/>
    <path d="M59.73,80.88c-.85.21-4.63.39-5.67.51" style="fill: none;stroke: #999;stroke-miterlimit: 10"/>
    <path d="M20.09,69.37a63.18,63.18,0,0,0,2.33-15.23A19.49,19.49,0,0,1,28.95,40a22.66,22.66,0,0,1,28.9,0,19.49,19.49,0,0,1,6.53,14.17A62.34,62.34,0,0,0,67,70.24" style="fill: none;stroke: #999;stroke-miterlimit: 10"/>
    <path d="M61.16,67.39A17.36,17.36,0,0,1,43.81,84.75H43A17.35,17.35,0,0,1,25.63,67.39V56.83c0-6.41,8.22-9.87,15.19-12.9,1.76.37,20.34,3.06,20.34,11.21Z" style="fill: none;stroke: #999;stroke-miterlimit: 10"/>
    <path d="M5.35,63.4S1.51,65.5,3.61,69.26" style="fill: none;stroke: #999;stroke-miterlimit: 10"/>
    <path d="M3.83,61.77S-1.12,63.54,1,68.45" style="fill: none;stroke: #999;stroke-miterlimit: 10"/>
    <path d="M83.44,63.2S86.9,65.1,85,68.49" style="fill: none;stroke: #999;stroke-miterlimit: 10"/>
    <path d="M84.81,61.73s4.46,1.6,2.5,6" style="fill: none;stroke: #999;stroke-miterlimit: 10"/>
    <line x1="29.95" y1="80.88" x2="34.03" y2="82.26" style="fill: none;stroke: #999;stroke-miterlimit: 10"/>
    <path d="M71.06,63.76s-.47-2.3-3-.94a3.2,3.2,0,0,0,1-4.46,3.14,3.14,0,0,0,4.35,0s-1.49,3.24.61,3" style="fill: none;stroke: #999;stroke-miterlimit: 10"/>
  </g>
</svg>
