<svg xmlns="http://www.w3.org/2000/svg" width="55" height="52" viewBox="0 0 55 52">
  <g>
    <path d="M1.47,22.16a.2.2,0,0,1,.2-.2c49.67,0,47.28-.1,47.28.2,0,9.86-5,19.67-13.66,24.27H15.13C6.83,42,1.47,32.51,1.47,22.16Z" style="fill: none;stroke: #062c5e;stroke-miterlimit: 10"/>
    <path d="M42.19,40.87c.36-.35.64-.82,1-1.2,3.9,3.71,9.91.65,9.91-5a6.47,6.47,0,0,0-4.72-6.39c.09-.51.17-1,.23-1.54a8,8,0,0,1,5.93,7.93C54.51,41.69,47,45.59,42.19,40.87Z" style="fill: none;stroke: #062c5e;stroke-miterlimit: 10"/>
    <g>
      <path d="M20.62,15.63s2-11.39-9.73-9.77C10.9,5.86,9.25,17.29,20.62,15.63Z" style="fill: none;stroke: #062c5e;stroke-miterlimit: 10"/>
      <line x1="22.78" y1="20.06" x2="20.62" y2="15.63" style="fill: none;stroke: #062c5e;stroke-miterlimit: 10"/>
      <path d="M10.9,5.86s7.18,3.66,9.73,9.77" style="fill: none;stroke: #062c5e;stroke-miterlimit: 10"/>
      <path d="M18.56,7.62S20.62-.5,30.36.6c0,0,3.58,5.38-2,11.51a10.5,10.5,0,0,1-7.7,3.52" style="fill: none;stroke: #062c5e;stroke-miterlimit: 10"/>
      <path d="M30.36.6s-8.1,5.88-9.74,11.51" style="fill: none;stroke: #062c5e;stroke-miterlimit: 10"/>
    </g>
    <path d="M34.84,20.06a1.2,1.2,0,0,0,0-1.43,2.08,2.08,0,0,1,0-2.94,3.68,3.68,0,0,0,0-5.2" style="fill: none;stroke: #062c5e;stroke-miterlimit: 10"/>
    <path d="M42.15,14.56a1.2,1.2,0,0,0,0-1.43,2.08,2.08,0,0,1,0-2.94,3.68,3.68,0,0,0,0-5.2" style="fill: none;stroke: #062c5e;stroke-miterlimit: 10"/>
    <path d="M25.37,50.84c-11.77,0-19.31-2.6-23.15-4.41h46.2c-3.94,1.83-11.53,4.41-23,4.41Z" style="fill: none;stroke: #062c5e;stroke-miterlimit: 10"/>
  </g>
</svg>
