<svg xmlns="http://www.w3.org/2000/svg" width="38" height="37" viewBox="0 0 38 37">
  <g>
    <path d="M37.44,36H.56V18.5H37.44Zm0-17.54H.56V1H37.44Z" style="fill: none;stroke: #999;stroke-linecap: round;stroke-linejoin: round"/>
    <path d="M28.53,20.47h6.38v13H28.53Zm-13.48,0H26.58v6.64H15.06Zm0,6.64H26.58v6.32H15.06ZM2.82,20.47H15.06v6.64H2.82Zm0,6.64H15.06v6.32H2.82Z" style="fill: none;stroke: #999;stroke-linecap: round;stroke-linejoin: round"/>
    <g>
      <path d="M32.38,31.14a.73.73,0,1,1-1.45,0V29.69a.73.73,0,1,1,1.45,0Z" style="fill: none;stroke: #999;stroke-linecap: round;stroke-linejoin: round"/>
      <path d="M32,29a1.3,1.3,0,0,0-.73,0V23.85a1.81,1.81,0,0,0,.73,0Z" style="fill: none;stroke: #999;stroke-linecap: round;stroke-linejoin: round"/>
      <circle cx="31.66" cy="22.83" r="1.09" style="fill: none;stroke: #999;stroke-linecap: round;stroke-linejoin: round"/>
    </g>
    <rect x="2.82" y="3.03" width="32.09" height="13.02" style="fill: none;stroke: #999;stroke-linecap: round;stroke-linejoin: round"/>
  </g>
</svg>
