<svg xmlns="http://www.w3.org/2000/svg" width="38" height="44" viewBox="0 0 38 44">
  <path d="M.5,24.15A.13.13,0,0,1,.63,24c32.18,0,30.64-.06,30.64.13,0,6.39-3.25,12.74-8.85,15.73H9.35C4,37,.5,30.86.5,24.15Z" style="fill: none;stroke: #999;stroke-linecap: round;stroke-linejoin: round"/>
  <path d="M16,42.74c-7.62,0-12.51-1.68-15-2.86H30.92c-2.55,1.19-7.47,2.86-14.93,2.86Z" style="fill: none;stroke: #999;stroke-linecap: round;stroke-linejoin: round"/>
  <path d="M30.92,27.78h5.67s.39,6.14-8.25,6.53A15.7,15.7,0,0,0,30.92,27.78Z" style="fill: none;stroke: #999;stroke-linecap: round;stroke-linejoin: round"/>
  <path d="M16.94,18.85A6.94,6.94,0,0,0,23.16,12c0-1.58-1.09-3.9-3.24-6.9-1.56-2.18-3.09-3.9-3.16-4L16.23.5l-.53.59c-.06.07-1.6,1.8-3.16,4-2.15,3-3.24,5.33-3.24,6.9a6.94,6.94,0,0,0,6.22,6.89Z" style="fill: none;stroke: #999;stroke-linecap: round;stroke-linejoin: round"/>
  <g>
    <polyline points="14.38 9.98 16.19 11.98 18.18 10.15" style="fill: none;stroke: #999;stroke-linecap: round;stroke-linejoin: round"/>
    <polyline points="13.37 13.35 16.19 16.11 19.1 13.43" style="fill: none;stroke: #999;stroke-linecap: round;stroke-linejoin: round"/>
    <line x1="16.19" y1="11.98" x2="16.19" y2="21.81" style="fill: none;stroke: #999;stroke-linecap: round;stroke-linejoin: round"/>
  </g>
</svg>
