<svg xmlns="http://www.w3.org/2000/svg" width="32" height="34" viewBox="0 0 32 34">
  <g>
    <path d="M6.78,23.19c2.46,0,5.21-3.69,6.48-8.86.21-.83.52-2.3.78-3.76a28.27,28.27,0,0,0,.45-3.47.4.4,0,0,0-.33-.41L6.78,4.89a.39.39,0,0,0-.45.2c-.16.35-.65,1.82-1.14,3.33s-1,3.22-1.12,3.64C2.76,17.36,3.58,22,5.83,23l.78.21h.16" style="fill: none;stroke: #999;stroke-linecap: round;stroke-linejoin: round"/>
    <line x1="13.98" y1="10.87" x2="5.07" y2="8.79" style="fill: none;stroke: #999;stroke-linecap: round;stroke-linejoin: round"/>
    <path d="M6.52,11.4S5,18.08,6.37,20" style="fill: none;stroke: #999;stroke-linecap: round;stroke-linejoin: round"/>
    <line x1="6.33" y1="23.19" x2="3.91" y2="32.39" style="fill: none;stroke: #999;stroke-linecap: round;stroke-linejoin: round"/>
    <line x1="0.5" y1="31.57" x2="7.23" y2="33.21" style="fill: none;stroke: #999;stroke-linecap: round;stroke-linejoin: round"/>
    <path d="M24.38,23.19h.16l.78-.21c2.26-1,3.08-5.62,1.76-10.91C27,11.64,26.48,10,26,8.42s-1-3-1.14-3.33a.39.39,0,0,0-.45-.2L17,6.69a.4.4,0,0,0-.33.41,28.16,28.16,0,0,0,.45,3.47c.26,1.45.57,2.93.78,3.76,1.27,5.17,4,8.86,6.48,8.86" style="fill: none;stroke: #999;stroke-linecap: round;stroke-linejoin: round"/>
    <line x1="17.17" y1="10.87" x2="26.09" y2="8.79" style="fill: none;stroke: #999;stroke-linecap: round;stroke-linejoin: round"/>
    <path d="M24.64,11.4s1.5,6.68.14,8.58" style="fill: none;stroke: #999;stroke-linecap: round;stroke-linejoin: round"/>
    <line x1="24.83" y1="23.19" x2="27.24" y2="32.39" style="fill: none;stroke: #999;stroke-linecap: round;stroke-linejoin: round"/>
    <line x1="30.66" y1="31.57" x2="23.93" y2="33.21" style="fill: none;stroke: #999;stroke-linecap: round;stroke-linejoin: round"/>
    <line x1="15.02" y1="0.5" x2="14.98" y2="3.41" style="fill: none;stroke: #999;stroke-linecap: round;stroke-linejoin: round"/>
    <line x1="18.22" y1="2.39" x2="16.13" y2="4.4" style="fill: none;stroke: #999;stroke-linecap: round;stroke-linejoin: round"/>
    <line x1="11.82" y1="2.39" x2="13.91" y2="4.4" style="fill: none;stroke: #999;stroke-linecap: round;stroke-linejoin: round"/>
  </g>
</svg>
