<svg xmlns="http://www.w3.org/2000/svg" width="51" height="52" viewBox="0 0 51 52">
  <g style="opacity: 0.5">
    <path d="M25.5.5a25,25,0,1,1-25,25A25,25,0,0,1,25.5.5Z" style="fill: none;stroke: #999;stroke-miterlimit: 10;fill-rule: evenodd"/>
  </g>
  <path d="M38.79,11.57v7.65a15.42,15.42,0,0,0,1.57,7.53l.18.42c1.25,2.81,1.48,5.05.66,6.49a3.86,3.86,0,0,1-2.57,1.72H10.57c-3.4-.1-4.28-2.08-4.26-3.23,0-.66.28-1.08.46-1.08a40.52,40.52,0,0,0,6.14-.61c4.38-.86,12.94-5.39,15.34-9.64.73-1.27,1-4.23.86-9v-.32" style="fill: none;stroke: #999;stroke-miterlimit: 10"/>
  <path d="M36.75,25.11c.34.81,1,3.2,0,4.48-.72.92-2.23,1.22-4.5.88" style="fill: none;stroke: #999;stroke-miterlimit: 10"/>
</svg>
