<svg xmlns="http://www.w3.org/2000/svg" width="36" height="41" viewBox="0 0 36 41">
  <line x1="9.36" y1="34.18" x2="14.28" y2="34.18" style="fill: none;stroke: #999;stroke-miterlimit: 10"/>
  <g>
    <path d="M23.15,37.45h0V6.4a2.7,2.7,0,0,0-2.7-2.7H3.2A2.7,2.7,0,0,0,.5,6.4V37.45a2.7,2.7,0,0,0,2.7,2.7H20.45A2.71,2.71,0,0,0,23.15,37.45Z" style="fill: none;stroke: #999;stroke-miterlimit: 10"/>
    <path d="M25.46,15A3.28,3.28,0,0,1,27,17.75a3.21,3.21,0,0,1-1.51,2.68" style="fill: none;stroke: #999;stroke-miterlimit: 10"/>
    <path d="M27.52,13.08a5.66,5.66,0,0,1,2.61,4.68,5.54,5.54,0,0,1-2.61,4.64" style="fill: none;stroke: #999;stroke-miterlimit: 10"/>
    <path d="M30.28,11.63a7.42,7.42,0,0,1,3.42,6.13,7.27,7.27,0,0,1-3.42,6.08" style="fill: none;stroke: #999;stroke-miterlimit: 10"/>
    <path d="M28.35,9a1.33,1.33,0,0,1-1.41-1.23,1.42,1.42,0,0,1,2.81,0A1.33,1.33,0,0,1,28.35,9Z" style="fill: none;stroke: #999;stroke-miterlimit: 10"/>
    <path d="M33.7,7.4a1.33,1.33,0,0,1-1.41-1.23,1.42,1.42,0,0,1,2.81,0A1.33,1.33,0,0,1,33.7,7.4Z" style="fill: none;stroke: #999;stroke-miterlimit: 10"/>
    <polyline points="29.76 7.93 29.76 2.93 29.76 1.21 35.11 0.56 35.11 6.17" style="fill: none;stroke: #999;stroke-miterlimit: 10"/>
    <line x1="35.11" y1="2.25" x2="29.76" y2="2.93" style="fill: none;stroke: #999;stroke-miterlimit: 10"/>
  </g>
</svg>
