<svg xmlns="http://www.w3.org/2000/svg" width="38" height="44" viewBox="0 0 38 44">
  <g>
    <path d="M.5,24.54a.13.13,0,0,1,.13-.13c32.32,0,30.76-.06,30.76.13,0,6.41-3.26,12.8-8.89,15.79H9.39C4,37.45.5,31.27.5,24.54Z" style="fill: none;stroke: #999;stroke-linecap: round;stroke-linejoin: round"/>
    <path d="M16,43.2C8.39,43.2,3.49,41.51,1,40.33H31c-2.56,1.19-7.5,2.87-15,2.87Z" style="fill: none;stroke: #999;stroke-linecap: round;stroke-linejoin: round"/>
    <path d="M31,28.18h5.7s.39,6.17-8.28,6.55A15.76,15.76,0,0,0,31,28.18Z" style="fill: none;stroke: #999;stroke-linecap: round;stroke-linejoin: round"/>
    <g>
      <path d="M16.76,13.79h-.13a2.89,2.89,0,0,1-.91-.19l-.14-.06a2.92,2.92,0,0,1-.36-.19L15,13.22a2.91,2.91,0,0,1-.87-1l-.06-.12h0L14,11.93a2.89,2.89,0,0,1-.19-1q0-.13,0-.27A2.89,2.89,0,0,1,14,9.84l.06-.14a2.91,2.91,0,0,1,1.48-1.48l.14-.06a2.89,2.89,0,0,1,1-.19h.13a2.89,2.89,0,0,1,.91.19l.14.06A2.93,2.93,0,0,1,19.42,9.7h0l.06.14a2.89,2.89,0,0,1,.19,1s0,.09,0,.13a2.89,2.89,0,0,1-.07.53l0,.11v0q0,.13-.08.25h0l-.06.14a2.91,2.91,0,0,1-1.48,1.48l-.14.06A2.89,2.89,0,0,1,16.76,13.79Z" style="fill: none;stroke: #999;stroke-linecap: round;stroke-linejoin: round"/>
      <path d="M19.63,9.89s7.74-2.1,7.79,1.1c0,0,.3,2.56-7.75.85" style="fill: none;stroke: #999;stroke-linecap: round;stroke-linejoin: round"/>
      <path d="M17.93,8.2S22,1.44,24.31,3.67c0,0,2.22,1.73-4.68,6.22" style="fill: none;stroke: #999;stroke-linecap: round;stroke-linejoin: round"/>
      <path d="M15.6,13.54s-1.89,7.66,1.31,7.71c0,0,2.8.35,1.09-7.71" style="fill: none;stroke: #999;stroke-linecap: round;stroke-linejoin: round"/>
      <path d="M18,13.54s4.08,6.75,6.38,4.52c0,0,2.22-1.73-4.68-6.22" style="fill: none;stroke: #999;stroke-linecap: round;stroke-linejoin: round"/>
      <path d="M17.93,8.2S20,.55,16.76.5c0,0-2.75-.39-1,7.66" style="fill: none;stroke: #999;stroke-linecap: round;stroke-linejoin: round"/>
      <path d="M14,10s-7.74-2.1-7.79,1.1c0,0-.3,2.56,7.75.85" style="fill: none;stroke: #999;stroke-linecap: round;stroke-linejoin: round"/>
      <path d="M15.58,8.22s-4-6.7-6.26-4.47c0,0-2.22,1.73,4.68,6.22" style="fill: none;stroke: #999;stroke-linecap: round;stroke-linejoin: round"/>
      <path d="M18,13.62s1.89,7.66-1.31,7.71c0,0-2.8.35-1.09-7.71" style="fill: none;stroke: #999;stroke-linecap: round;stroke-linejoin: round"/>
      <path d="M15.66,13.62s-4.08,6.75-6.38,4.52c0,0-2.22-1.73,4.68-6.22" style="fill: none;stroke: #999;stroke-linecap: round;stroke-linejoin: round"/>
    </g>
  </g>
</svg>
