<svg xmlns="http://www.w3.org/2000/svg" width="53" height="89" viewBox="0 0 53 89">
  <rect x="16.57" y="0.5" width="20" height="20" style="fill: none;stroke: #999;stroke-miterlimit: 10"/>
  <text transform="translate(22.39 15.29)" style="font-size: 14px;fill: #999;font-family: 'Spoqa Han Sans';font-weight: 700">3</text>
  <path d="M44.65,69.82a18,18,0,0,1-18,18H25.8a18,18,0,0,1-18-18v-11c0-6.64,8.53-10.24,15.76-13.38,1.82.39,21.09,3.18,21.09,11.63Z" style="fill: none;stroke: #999;stroke-miterlimit: 10"/>
  <path d="M31.28,50H21.17A11,11,0,0,0,10.23,60.94v8.42a16,16,0,0,0,16,16c8.82,0,16-7.18,16-14.83V62.12C42.22,54.91,37.31,50,31.28,50Z" style="fill: none;stroke: #999;stroke-miterlimit: 10"/>
  <path d="M25.36,62c0-2.2-2.31-3.56-6-3.56s-6,1.37-6,3.56,1.58,5,6,5S25.36,64.32,25.36,62Z" style="fill: none;stroke: #999;stroke-miterlimit: 10"/>
  <path d="M33.11,58.46c-3.72,0-6,1.37-6,3.56s1.58,5,6,5,6-2.69,6-5S36.83,58.46,33.11,58.46Z" style="fill: none;stroke: #999;stroke-miterlimit: 10"/>
  <path d="M26.16,71.84c-4.85.07-7.73,1.35-7.7,3.43,0,2.26,2.78,4.74,7.81,4.67S34,77.31,34,75.05C33.93,73,31,71.77,26.16,71.84Z" style="fill: none;stroke: #999;stroke-miterlimit: 10"/>
  <path d="M15.37,62.46a6.64,6.64,0,0,0,4,1,6.64,6.64,0,0,0,4-1" style="fill: none;stroke: #999;stroke-miterlimit: 10"/>
  <path d="M29.14,62.46a6.64,6.64,0,0,0,4,1,6.64,6.64,0,0,0,4-1" style="fill: none;stroke: #999;stroke-miterlimit: 10"/>
  <line x1="23.31" y1="75.52" x2="29.73" y2="75.52" style="fill: none;stroke: #999;stroke-miterlimit: 10"/>
  <path d="M23.58,68.08a2.24,2.24,0,0,0,1.35,2.18,2.95,2.95,0,0,0,2.57,0,2.24,2.24,0,0,0,1.35-2.18" style="fill: none;stroke: #999;stroke-miterlimit: 10"/>
  <path d="M15.81,84.79C2.58,84.79.72,77.51.59,77.2a1,1,0,0,1,0-.77,61.34,61.34,0,0,0,3.89-20.1,20.22,20.22,0,0,1,6.77-14.7,23.08,23.08,0,0,1,15-5.4,23.12,23.12,0,0,1,15,5.4A20.22,20.22,0,0,1,48,56.33a61.34,61.34,0,0,0,3.89,20.1,1,1,0,0,1,0,.77c-.14.31-2,7.59-15.23,7.59" style="fill: none;stroke: #999;stroke-miterlimit: 10"/>
</svg>
