<svg xmlns="http://www.w3.org/2000/svg" width="53" height="96" viewBox="0 0 53 96">
  <rect x="16.38" y="0.5" width="20" height="20" style="fill: none;stroke: #999;stroke-miterlimit: 10"/>
  <text transform="translate(22.2 15.29)" style="font-size: 14px;fill: #999;font-family: 'Spoqa Han Sans';font-weight: 700">1</text>
  <g>
    <path d="M7,76.56s-.14-1.75-1.43-2.05C5.57,74.51,5,74.87,7,76.56Z" style="fill: none;stroke: #999;stroke-miterlimit: 10"/>
    <path d="M17.69,95l-.9-9c-.47-.56-6-5.18-6.82-5.68-.63-.37-1.41-1.79-2.37-3s-2.08-2.08-2-2.56c.35-1.31,2.21-.41,2.42-.29A12.48,12.48,0,0,1,11,77c-.29-.69-.59-1.53-.62-1.62l-.2-.51,0-.06L6.37,65.88A1.35,1.35,0,0,1,6.31,65a2.42,2.42,0,0,0,.11.36l.17.44c.25.54.68.54,1.11.33s.71-.53.46-1.07c0,0-.18-.44-.2-.48a2.8,2.8,0,0,0-.16-.25,1.34,1.34,0,0,1,.65.69l3.71,8,.23-.1L8.53,63.06a1.31,1.31,0,0,1,0-1,2.25,2.25,0,0,0,.13.46l.17.44c.25.54.68.53,1.11.33s.71-.52.46-1.07c0,0-.18-.44-.2-.48a2.41,2.41,0,0,0-.26-.37,1.3,1.3,0,0,1,.78.75L15,71.9l.2,0L12,63.67a1.45,1.45,0,0,1,.06-1.22,2.21,2.21,0,0,0,.1.51l.14.45c.22.56.64.58,1.09.41s.74-.48.53-1c0,0-.15-.45-.17-.49a2.54,2.54,0,0,0-.21-.35,1.47,1.47,0,0,1,.78.82l3.54,8.49.15,0-1.54-4.7a1.3,1.3,0,0,1,0-1,1.83,1.83,0,0,0,.07.37l.1.38c.17.46.51.49.88.36s.62-.37.46-.84c0,0-.11-.38-.12-.41a2.15,2.15,0,0,0-.16-.28,1.32,1.32,0,0,1,.64.72l1.74,5.06,0,.1h0a56,56,0,0,1,2.54,6.11c.71,2.33,1.51,17.6,1.51,17.6" style="fill: none;stroke: #999;stroke-miterlimit: 10"/>
    <path d="M17.75,65.06a.65.65,0,0,0-1.24.42" style="fill: none;stroke: #999;stroke-miterlimit: 10"/>
    <path d="M16.51,65.48a1.87,1.87,0,0,0,.07.37l.11.38c.16.46.51.49.88.36s.62-.37.46-.84c0,0-.11-.38-.12-.41a2,2,0,0,0-.15-.28" style="fill: none;stroke: #999;stroke-miterlimit: 10"/>
    <path d="M13.55,61.94a.84.84,0,0,0-1-.41.83.83,0,0,0-.47.93" style="fill: none;stroke: #999;stroke-miterlimit: 10"/>
    <path d="M12.06,62.45a2.18,2.18,0,0,0,.1.51l.14.45c.22.56.64.58,1.09.41s.74-.48.53-1c0,0-.15-.45-.17-.49a2.51,2.51,0,0,0-.21-.35" style="fill: none;stroke: #999;stroke-miterlimit: 10"/>
    <path d="M9.93,61.42a.82.82,0,0,0-1-.31.85.85,0,0,0-.4,1" style="fill: none;stroke: #999;stroke-miterlimit: 10"/>
    <path d="M8.51,62.1a2.22,2.22,0,0,0,.13.46l.17.44c.25.54.68.54,1.11.33s.71-.53.46-1.07c0,0-.18-.44-.2-.48a2.41,2.41,0,0,0-.26-.37" style="fill: none;stroke: #999;stroke-miterlimit: 10"/>
    <path d="M7.8,64.29c-.28-.38-.66-.64-1.11-.43A.89.89,0,0,0,6.31,65" style="fill: none;stroke: #999;stroke-miterlimit: 10"/>
    <path d="M6.31,65a2.3,2.3,0,0,0,.11.36l.17.44c.26.54.68.54,1.11.33s.71-.53.46-1.07c0,0-.18-.44-.2-.48a2.53,2.53,0,0,0-.16-.25" style="fill: none;stroke: #999;stroke-miterlimit: 10"/>
    <path d="M46.25,76.56c2-1.68,1.43-2.05,1.43-2.05C46.4,74.8,46.25,76.56,46.25,76.56Z" style="fill: none;stroke: #999;stroke-miterlimit: 10"/>
    <path d="M35.56,95,36.27,87c.47-.56,6.16-6.14,7-6.64.63-.37,1.41-1.79,2.37-3s2.08-2.08,2-2.56c-.35-1.31-2.21-.41-2.42-.29A12.48,12.48,0,0,0,42.29,77c.29-.69.59-1.53.62-1.62l.2-.51,0-.06,3.75-8.91a1.34,1.34,0,0,0,.06-.91,2.35,2.35,0,0,1-.11.36l-.17.44c-.26.54-.68.54-1.11.33s-.71-.53-.46-1.07c0,0,.18-.44.2-.48a2.8,2.8,0,0,1,.16-.25,1.34,1.34,0,0,0-.65.69l-3.71,8-.23-.1,3.85-9.84a1.31,1.31,0,0,0,0-1,2.21,2.21,0,0,1-.13.46l-.17.44c-.25.54-.68.53-1.11.33s-.71-.52-.46-1.07c0,0,.18-.44.2-.48a2.41,2.41,0,0,1,.26-.37,1.3,1.3,0,0,0-.78.75L38.29,71.9l-.2,0,3.15-8.18a1.45,1.45,0,0,0-.06-1.22,2.24,2.24,0,0,1-.1.51l-.14.45c-.22.56-.64.58-1.09.41s-.74-.48-.53-1c0,0,.15-.45.17-.49a2.49,2.49,0,0,1,.21-.35,1.47,1.47,0,0,0-.78.82l-3.54,8.49-.15,0,1.54-4.7a1.3,1.3,0,0,0,0-1,1.83,1.83,0,0,1-.07.37l-.1.38c-.17.46-.51.49-.88.36s-.62-.37-.46-.84c0,0,.11-.38.12-.41a2.08,2.08,0,0,1,.15-.28,1.32,1.32,0,0,0-.64.72l-1.74,5.06,0,.1h0a56,56,0,0,0-2.54,6.11c-.71,2.33-1.28,8.22-1.51,10.45v7.15" style="fill: none;stroke: #999;stroke-miterlimit: 10"/>
    <path d="M35.5,65.06a.65.65,0,0,1,1.24.42" style="fill: none;stroke: #999;stroke-miterlimit: 10"/>
    <path d="M36.74,65.48a1.87,1.87,0,0,1-.07.37l-.1.38c-.16.46-.51.49-.88.36s-.62-.37-.46-.84c0,0,.11-.38.12-.41a2,2,0,0,1,.16-.28" style="fill: none;stroke: #999;stroke-miterlimit: 10"/>
    <path d="M39.7,61.94a.84.84,0,0,1,1-.41.83.83,0,0,1,.47.93" style="fill: none;stroke: #999;stroke-miterlimit: 10"/>
    <path d="M41.19,62.45a2.18,2.18,0,0,1-.11.51l-.14.45c-.22.56-.64.58-1.09.41s-.74-.48-.53-1c0,0,.15-.45.17-.49a2.5,2.5,0,0,1,.21-.35" style="fill: none;stroke: #999;stroke-miterlimit: 10"/>
    <path d="M43.32,61.42a.82.82,0,0,1,1-.31.85.85,0,0,1,.4,1" style="fill: none;stroke: #999;stroke-miterlimit: 10"/>
    <path d="M44.74,62.1a2.22,2.22,0,0,1-.13.46l-.17.44c-.25.54-.68.54-1.11.33s-.71-.53-.46-1.07c0,0,.18-.44.2-.48a2.41,2.41,0,0,1,.26-.37" style="fill: none;stroke: #999;stroke-miterlimit: 10"/>
    <path d="M45.45,64.29c.28-.38.66-.64,1.11-.43a.89.89,0,0,1,.38,1.1" style="fill: none;stroke: #999;stroke-miterlimit: 10"/>
    <path d="M46.94,65a2.31,2.31,0,0,1-.11.36l-.17.44c-.26.54-.68.54-1.11.33s-.71-.53-.46-1.07c0,0,.18-.44.2-.48a2.65,2.65,0,0,1,.16-.25" style="fill: none;stroke: #999;stroke-miterlimit: 10"/>
    <path d="M7.84,64.29V57.14c0-6.68,8.58-10.3,15.85-13.46,1.83.39,21.22,3.2,21.22,11.7V65" style="fill: none;stroke: #999;stroke-miterlimit: 10"/>
    <path d="M29,86.13a18.22,18.22,0,0,1-2.23.14h-.86a18.14,18.14,0,0,1-1.86-.1" style="fill: none;stroke: #999;stroke-miterlimit: 10"/>
    <path d="M15.46,60.77a6.67,6.67,0,0,0,4,1,6.67,6.67,0,0,0,4-1" style="fill: none;stroke: #999;stroke-miterlimit: 10"/>
    <path d="M29.31,60.77a6.67,6.67,0,0,0,4,1,6.67,6.67,0,0,0,4-1" style="fill: none;stroke: #999;stroke-miterlimit: 10"/>
    <line x1="23.44" y1="73.9" x2="29.9" y2="73.9" style="fill: none;stroke: #999;stroke-miterlimit: 10"/>
    <path d="M13,83.1C2.32,82.14.71,75.87.59,75.59a1,1,0,0,1,0-.78A61.74,61.74,0,0,0,4.49,54.59,20.34,20.34,0,0,1,11.3,39.81a23.22,23.22,0,0,1,15.08-5.43,23.25,23.25,0,0,1,15.08,5.43,20.34,20.34,0,0,1,6.81,14.78,61.7,61.7,0,0,0,3.91,20.22,1,1,0,0,1,0,.78c-.12.28-1.66,6.26-11.7,7.44" style="fill: none;stroke: #999;stroke-miterlimit: 10"/>
  </g>
</svg>
