<svg xmlns="http://www.w3.org/2000/svg" width="13" height="39" viewBox="0 0 13 39">
  <g>
    <g>
      <path d="M3,2l1.41,5.5H1.61L3,2ZM.84,19.92a.51.51,0,0,1,.52-.46H4.64a.51.51,0,0,1,.52.46v16.3H.84ZM3.67,38.34H2.32A1.48,1.48,0,0,1,.84,36.87v-.65H5.15v.65a1.48,1.48,0,0,1-1.48,1.48Zm0,0M1.61,7.49v12m2.83-12v12" style="fill: none;stroke: #999;stroke-linecap: round;stroke-linejoin: round"/>
      <path d="M11.67,23.82h-3a.49.49,0,0,0-.49.5V36.43a1.68,1.68,0,0,0,1.66,1.71h.63a1.68,1.68,0,0,0,1.66-1.71V24.32a.49.49,0,0,0-.49-.5Zm.49,14.53" style="fill: none;stroke: #999;stroke-linecap: round;stroke-linejoin: round"/>
    </g>
    <line x1="3.03" y1="1.99" x2="2.99" y2="0.66" style="fill: none;stroke: #999;stroke-linecap: round;stroke-linejoin: round"/>
  </g>
</svg>
