<svg xmlns="http://www.w3.org/2000/svg" width="44" height="40" viewBox="0 0 44 40">
  <g>
    <path d="M4.56,26.54a9.06,9.06,0,1,1,9.06,9.06A9.06,9.06,0,0,1,4.56,26.54Z" style="fill: none;stroke: #999;stroke-linecap: round;stroke-linejoin: round"/>
    <circle cx="13.56" cy="26.46" r="12.93" style="fill: none;stroke: #999;stroke-linecap: round;stroke-linejoin: round"/>
    <path d="M13.56,13.54A12.92,12.92,0,0,1,24.76,20,12.93,12.93,0,1,0,2.37,20,12.92,12.92,0,0,1,13.56,13.54Z" style="fill: none;stroke: #999;stroke-linecap: round;stroke-linejoin: round"/>
    <g>
      <g>
        <polygon points="35.29 12.5 38.85 12.5 38.8 14.01 35.35 14.01 35.29 12.5" style="fill: none;stroke: #999;stroke-linecap: round;stroke-linejoin: round"/>
        <path d="M37.74,36.34c0,.3-.32.48-.6.48s-.6-.18-.6-.48c0,0-1.19-22.33-1.19-22.33H38.8s-1.06,22.32-1.06,22.33Z" style="fill: none;stroke: #999;stroke-linecap: round;stroke-linejoin: round"/>
        <path d="M38.83,12.5H35.29L30.76,5.17a9.94,9.94,0,0,1,6.3-2,9.94,9.94,0,0,1,6.31,2Z" style="fill: none;stroke: #999;stroke-linecap: round;stroke-linejoin: round"/>
      </g>
      <line x1="36.41" y1="12.5" x2="35.75" y2="10.71" style="fill: none;stroke: #999;stroke-linecap: round;stroke-linejoin: round"/>
      <line x1="37.71" y1="12.5" x2="38.38" y2="10.71" style="fill: none;stroke: #999;stroke-linecap: round;stroke-linejoin: round"/>
    </g>
  </g>
</svg>
