<svg xmlns="http://www.w3.org/2000/svg" width="38" height="33" viewBox="0 0 38 33">
  <g>
    <path d="M25.48,17.77l-.9-15.06A2.35,2.35,0,0,0,22.23.5H14.83a2.35,2.35,0,0,0-2.35,2.21l-.9,15.06" style="fill: none;stroke: #999;stroke-linecap: round;stroke-linejoin: round"/>
    <line x1="14.67" y1="7.09" x2="22.22" y2="7.09" style="fill: none;stroke: #999;stroke-linecap: round;stroke-linejoin: round"/>
    <path d="M11.94,11.75H10s-1,0-1.19,1.4L8,17.77" style="fill: none;stroke: #999;stroke-linecap: round;stroke-linejoin: round"/>
    <path d="M25.1,11.75H27s1,0,1.19,1.4l.85,4.62" style="fill: none;stroke: #999;stroke-linecap: round;stroke-linejoin: round"/>
    <line x1="0.5" y1="17.78" x2="36.56" y2="17.78" style="fill: none;stroke: #999;stroke-linecap: round;stroke-linejoin: round"/>
    <polyline points="3.43 17.78 3.43 21.25 5.83 21.25 33.64 21.25 33.64 17.78" style="fill: none;stroke: #999;stroke-linecap: round;stroke-linejoin: round"/>
    <polyline points="27.07 32.01 31.27 32.01 31.27 21.25" style="fill: none;stroke: #999;stroke-linecap: round;stroke-linejoin: round"/>
    <polyline points="5.65 21.25 5.65 32.01 9.96 32.01" style="fill: none;stroke: #999;stroke-linecap: round;stroke-linejoin: round"/>
  </g>
</svg>
