<svg xmlns="http://www.w3.org/2000/svg" width="51" height="52" viewBox="0 0 51 52">
  <g style="opacity: 0.5">
    <path d="M25.5.5a25,25,0,1,1-25,25A25,25,0,0,1,25.5.5Z" style="fill: none;stroke: #999;stroke-miterlimit: 10;fill-rule: evenodd"/>
  </g>
  <g>
    <path d="M11.58,25.86C12.17,27,17,35.39,26,35.39S39.74,27,40.33,25.86c-.59-1.11-5.41-9.54-14.37-9.54s-13.78,8.43-14.37,9.54Z" style="fill: none;stroke: #999;stroke-miterlimit: 10"/>
    <path d="M26,32.13a6.27,6.27,0,1,1,6.27-6.27A6.28,6.28,0,0,1,26,32.13Zm0-11.57" style="fill: none;stroke: #999;stroke-miterlimit: 10"/>
    <path class="fill" d="M27.6,25.86A1.64,1.64,0,1,1,26,24.21a1.64,1.64,0,0,1,1.64,1.64Zm0,0" style="fill: #999"/>
    <line x1="11.86" y1="18.91" x2="14.54" y2="21.59" style="fill: none;stroke: #999;stroke-miterlimit: 10"/>
    <line x1="17.66" y1="14.51" x2="19.53" y2="17.81" style="fill: none;stroke: #999;stroke-miterlimit: 10"/>
    <line x1="25.88" y1="12.59" x2="25.88" y2="16" style="fill: none;stroke: #999;stroke-miterlimit: 10"/>
    <line x1="34.11" y1="14.51" x2="32.23" y2="17.81" style="fill: none;stroke: #999;stroke-miterlimit: 10"/>
    <line x1="39.37" y1="18.91" x2="37.22" y2="21.06" style="fill: none;stroke: #999;stroke-miterlimit: 10"/>
  </g>
</svg>
