<svg xmlns="http://www.w3.org/2000/svg" width="35" height="38" viewBox="0 0 35 39">
  <g>
    <polyline points="23.75 35.15 23.75 35.15 23.75 25.04" style="fill: none;stroke: #999;stroke-miterlimit: 10"/>
    <g>
      <path d="M23.75,4.85V3.27A2.78,2.78,0,0,0,21,.5H3.27A2.78,2.78,0,0,0,.5,3.27V35.15a2.78,2.78,0,0,0,2.77,2.77H21a2.78,2.78,0,0,0,2.77-2.78" style="fill: none;stroke: #999;stroke-miterlimit: 10"/>
      <line x1="9.85" y1="34.01" x2="15.9" y2="34.01" style="fill: none;stroke: #999;stroke-miterlimit: 10"/>
      <path d="M18.09,25.63a.83.83,0,0,0,.3.06.74.74,0,0,0,.53-.22l4.2-4,7.95,0a3.15,3.15,0,0,0,3.14-3.17l0-8.88A3.15,3.15,0,0,0,31,6.2l-14.56.06a3.15,3.15,0,0,0-3.14,3.17l0,8.88a3.15,3.15,0,0,0,3.17,3.14h1.12l0,3.49A.74.74,0,0,0,18.09,25.63Z" style="fill: none;stroke: #999;stroke-miterlimit: 10"/>
      <line x1="20.06" y1="10.08" x2="28.17" y2="17.51" style="fill: none;stroke: #999;stroke-miterlimit: 10"/>
      <line x1="28.17" y1="10.27" x2="20.06" y2="17.69" style="fill: none;stroke: #999;stroke-miterlimit: 10"/>
    </g>
  </g>
</svg>
