<svg xmlns="http://www.w3.org/2000/svg" width="22.188" height="19.5" viewBox="0 0 44.375 39">
  <metadata><?xpacket begin="﻿" id="W5M0MpCehiHzreSzNTczkc9d"?>
<x:xmpmeta xmlns:x="adobe:ns:meta/" x:xmptk="Adobe XMP Core 5.6-c138 79.159824, 2016/09/14-01:09:01        ">
   <rdf:RDF xmlns:rdf="http://www.w3.org/1999/02/22-rdf-syntax-ns#">
      <rdf:Description rdf:about=""/>
   </rdf:RDF>
</x:xmpmeta>
                                                                                                    
                                                                                                    
                                                                                                    
                                                                                                    
                                                                                                    
                                                                                                    
                                                                                                    
                                                                                                    
                                                                                                    
                                                                                                    
                                                                                                    
                                                                                                    
                                                                                                    
                                                                                                    
                                                                                                    
                                                                                                    
                                                                                                    
                                                                                                    
                                                                                                    
                                                                                                    
                           
<?xpacket end="w"?></metadata>
<defs>
    <style>
      .cls-1 {
        fill: #222;
        fill-rule: evenodd;
      }
    </style>
  </defs>
  <path id="_-e-talk" data-name="-e-talk" class="cls-1" d="M706.933,8579.38h2.559l-1.279-3.46Zm5.976-18.19c-12.261,0-22.2,7.46-22.2,16.66,0,5.95,4.154,11.17,10.4,14.12-0.341,1.12-2.185,7.18-2.258,7.66a0.539,0.539,0,0,0,.2.5,0.733,0.733,0,0,0,.529.03c0.7-.1,8.1-5.04,9.381-5.9a29.947,29.947,0,0,0,3.943.26c12.259,0,22.2-7.46,22.2-16.67S725.168,8561.19,712.909,8561.19Zm-10.993,21.31a1.286,1.286,0,0,1-2.562,0v-7.24h-2a1.2,1.2,0,1,1,0-2.39h6.557a1.2,1.2,0,1,1,0,2.39h-2v7.24Zm10.763,0.99a2.223,2.223,0,0,1-.814.16,1.051,1.051,0,0,1-1.066-.54l-0.634-1.57h-3.9l-0.635,1.58a1.059,1.059,0,0,1-1.064.53,2.224,2.224,0,0,1-.815-0.16c-0.353-.16-0.692-0.58-0.3-1.73l3.063-7.68a1.808,1.808,0,0,1,3.413,0l3.063,7.67C713.372,8582.91,713.032,8583.33,712.679,8583.49Zm6.473,0h-4.11a1.177,1.177,0,0,1-1.227-1.12v-8.28a1.311,1.311,0,0,1,2.615,0v7.17h2.722A1.12,1.12,0,1,1,719.152,8583.49Zm10.025-.91a1.2,1.2,0,0,1-.5.8,1.326,1.326,0,0,1-.771.25,1.294,1.294,0,0,1-1.023-.49l-3-3.79-0.444.43v2.65a1.283,1.283,0,0,1-2.562.01v-8.35a1.282,1.282,0,0,1,2.561,0v2.63l3.573-3.41a1.045,1.045,0,0,1,.711-0.27,1.289,1.289,0,0,1,.881.36,1.18,1.18,0,0,1,.377.77,0.934,0.934,0,0,1-.284.75l-2.918,2.77,3.153,3.98A1.173,1.173,0,0,1,729.177,8582.58Z" transform="translate(-690.719 -8561.19)"/>
</svg>
