<svg xmlns="http://www.w3.org/2000/svg" width="8.594" height="15.47" viewBox="0 0 17.188 30.94">
  <metadata><?xpacket begin="﻿" id="W5M0MpCehiHzreSzNTczkc9d"?>
<x:xmpmeta xmlns:x="adobe:ns:meta/" x:xmptk="Adobe XMP Core 5.6-c138 79.159824, 2016/09/14-01:09:01        ">
   <rdf:RDF xmlns:rdf="http://www.w3.org/1999/02/22-rdf-syntax-ns#">
      <rdf:Description rdf:about=""/>
   </rdf:RDF>
</x:xmpmeta>
                                                                                                    
                                                                                                    
                                                                                                    
                                                                                                    
                                                                                                    
                                                                                                    
                                                                                                    
                                                                                                    
                                                                                                    
                                                                                                    
                                                                                                    
                                                                                                    
                                                                                                    
                                                                                                    
                                                                                                    
                                                                                                    
                                                                                                    
                                                                                                    
                                                                                                    
                                                                                                    
                           
<?xpacket end="w"?></metadata>
<defs>
    <style>
      .cls-1 {
        fill: #222;
        fill-rule: evenodd;
      }
    </style>
  </defs>
  <path id="_-e-kakao_story" data-name="-e-kakao story" class="cls-1" d="M931.415,8563.74H917.6a1.644,1.644,0,0,0-1.68,1.6v13.13a1.645,1.645,0,0,0,1.68,1.61h6.37a9.652,9.652,0,0,1-1.711,4.77,19.541,19.541,0,0,1-3.5,3.59,0.861,0.861,0,0,0-.326.64,0.954,0.954,0,0,0,.237.55l4.443,4.77a1.078,1.078,0,0,0,.394.26,0.7,0.7,0,0,0,.588-0.07,21.084,21.084,0,0,0,9-16.62c0-.03,0-12.63,0-12.63a1.643,1.643,0,0,0-1.681-1.6" transform="translate(-915.906 -8563.75)"/>
</svg>
