<svg xmlns="http://www.w3.org/2000/svg" width="17.906" height="12.75" viewBox="0 0 35.812 25.5">
  <metadata><?xpacket begin="﻿" id="W5M0MpCehiHzreSzNTczkc9d"?>
<x:xmpmeta xmlns:x="adobe:ns:meta/" x:xmptk="Adobe XMP Core 5.6-c138 79.159824, 2016/09/14-01:09:01        ">
   <rdf:RDF xmlns:rdf="http://www.w3.org/1999/02/22-rdf-syntax-ns#">
      <rdf:Description rdf:about=""/>
   </rdf:RDF>
</x:xmpmeta>
                                                                                                    
                                                                                                    
                                                                                                    
                                                                                                    
                                                                                                    
                                                                                                    
                                                                                                    
                                                                                                    
                                                                                                    
                                                                                                    
                                                                                                    
                                                                                                    
                                                                                                    
                                                                                                    
                                                                                                    
                                                                                                    
                                                                                                    
                                                                                                    
                                                                                                    
                                                                                                    
                           
<?xpacket end="w"?></metadata>
<defs>
    <style>
      .cls-1 {
        fill: #222;
        fill-rule: evenodd;
      }
    </style>
  </defs>
  <path id="_-e-twitter" data-name="-e-twitter" class="cls-1" d="M801.253,8569.51a16.54,16.54,0,0,1-4.218,1.02,6.752,6.752,0,0,0,3.233-3.57,15.672,15.672,0,0,1-4.676,1.56,7.871,7.871,0,0,0-5.353-2.03c-4.052,0-7.34,2.88-7.34,6.44a5.921,5.921,0,0,0,.186,1.47,21.946,21.946,0,0,1-15.14-6.73,5.8,5.8,0,0,0-1,3.24,6.279,6.279,0,0,0,3.267,5.36,8.078,8.078,0,0,1-3.32-.81v0.08c0,3.12,2.533,5.73,5.887,6.33a8.723,8.723,0,0,1-1.934.22,9.134,9.134,0,0,1-1.386-.11,7.348,7.348,0,0,0,6.86,4.48,16.155,16.155,0,0,1-9.122,2.75,16.9,16.9,0,0,1-1.749-.1,22.844,22.844,0,0,0,11.262,2.9c13.5,0,20.888-9.82,20.888-18.33l-0.023-.84a14,14,0,0,0,3.673-3.33h0Zm0,0" transform="translate(-765.438 -8566.5)"/>
</svg>
